<?xml version="1.0" standalone="no"?>
<!DOCTYPE svg PUBLIC "-//W3C//DTD SVG 20010904//EN"
 "http://www.w3.org/TR/2001/REC-SVG-20010904/DTD/svg10.dtd">
<svg version="1.0" xmlns="http://www.w3.org/2000/svg"
 width="612.000000pt" height="612.000000pt" viewBox="0 0 612.000000 612.000000"
 preserveAspectRatio="xMidYMid meet">
<metadata>
Created by potrace 1.14, written by Peter Selinger 2001-2017
</metadata>
<g transform="translate(0.000000,612.000000) scale(0.100000,-0.100000)"
fill="#000000" stroke="none">
<path d="M2348 6114 c-2 -1 -106 -5 -233 -8 -211 -5 -322 -9 -675 -21 -154 -6
-218 -18 -293 -58 -63 -33 -110 -80 -152 -151 -30 -51 -70 -162 -79 -221 -4
-20 -8 -40 -11 -44 -2 -4 -7 -36 -10 -72 -3 -35 -7 -75 -10 -89 -2 -14 -7 -54
-10 -90 -4 -36 -8 -76 -10 -90 -2 -14 -6 -52 -10 -85 -3 -33 -8 -80 -10 -105
-3 -25 -7 -72 -10 -105 -3 -33 -7 -76 -10 -95 -3 -33 -8 -80 -20 -215 -3 -33
-8 -85 -10 -115 -2 -30 -6 -84 -9 -120 -3 -36 -8 -94 -11 -130 -11 -144 -16
-217 -20 -260 -2 -25 -7 -92 -10 -150 -3 -58 -8 -125 -10 -150 -3 -25 -7 -99
-11 -165 -4 -66 -8 -136 -9 -155 -1 -19 -6 -96 -9 -170 -4 -74 -9 -157 -11
-185 -2 -27 -7 -104 -10 -170 -3 -66 -8 -148 -10 -181 -16 -222 -19 -366 -20
-734 0 -461 9 -584 55 -785 6 -27 13 -58 15 -68 2 -9 6 -21 9 -25 3 -5 7 -19
9 -33 3 -13 17 -55 33 -94 147 -371 413 -584 903 -725 111 -32 338 -79 456
-94 28 -4 61 -9 75 -11 28 -5 91 -13 160 -21 25 -3 56 -7 70 -9 14 -2 52 -7
85 -10 33 -3 71 -8 85 -10 14 -3 52 -7 85 -10 71 -6 158 -15 200 -20 62 -7
235 -22 355 -30 190 -13 220 -15 350 -22 172 -10 1183 -10 1233 -1 65 13 157
48 200 75 208 131 354 381 411 708 17 93 21 194 20 510 0 308 -4 495 -19 1010
-2 72 -7 231 -10 355 -3 124 -8 290 -10 370 -2 80 -7 242 -10 360 -9 366 -14
548 -20 725 -15 475 -16 490 -31 670 -3 38 -7 72 -9 75 -2 3 -6 30 -10 60 -25
215 -121 472 -233 630 -131 183 -347 339 -592 424 -88 31 -285 82 -350 91 -25
3 -54 8 -65 9 -11 2 -47 7 -80 10 -33 4 -80 10 -105 13 -43 6 -1567 13 -1572
7z m1205 -810 c35 -25 46 -41 66 -99 22 -64 25 -89 29 -293 4 -235 -3 -365
-43 -767 -30 -297 -47 -394 -81 -480 -66 -164 -184 -149 -267 33 -19 41 -22
65 -22 187 0 77 4 179 8 226 l8 86 -78 -4 c-200 -10 -294 -35 -312 -82 -5 -14
-12 -109 -15 -211 -7 -249 -32 -337 -108 -391 -99 -71 -225 -1 -273 151 -16
49 -19 131 -27 700 -10 706 -9 728 44 801 51 70 191 116 272 89 50 -16 100
-79 122 -153 22 -74 25 -297 6 -445 -7 -51 -10 -97 -7 -103 4 -5 80 -9 177 -9
l171 0 -7 48 c-33 237 -38 296 -33 392 7 150 25 200 100 275 34 34 78 66 97
73 57 18 126 9 173 -24z m99 -2311 c75 -37 132 -116 156 -214 22 -89 72 -414
88 -569 19 -185 21 -482 5 -598 -23 -158 -70 -265 -136 -308 -15 -10 -47 -17
-78 -18 -94 -1 -152 56 -176 173 -6 29 -16 181 -21 338 -5 156 -12 307 -16
334 l-7 50 -121 -119 c-138 -135 -199 -172 -282 -172 -99 0 -185 87 -298 301
l-48 92 -14 -32 c-26 -62 -43 -179 -54 -370 -14 -249 -28 -324 -82 -430 -51
-101 -95 -141 -162 -148 -60 -7 -98 10 -146 64 -80 91 -90 180 -56 483 41 353
113 839 135 910 41 131 146 217 255 208 126 -10 256 -113 426 -335 l47 -62 67
99 c189 279 375 396 518 323z"/>
</g>
</svg>
